<?plantuml 1.2026.2?><svg xmlns="http://www.w3.org/2000/svg" xmlns:xlink="http://www.w3.org/1999/xlink" contentStyleType="text/css" data-diagram-type="CLASS" height="1224px" preserveAspectRatio="none" style="width:1794px;height:1224px;background:#FFFFFF;" version="1.1" viewBox="0 0 1794 1224" width="1794px" zoomAndPan="magnify"><defs/><g><!--class Direction--><g class="entity" data-qualified-name="Direction" data-source-line="7" id="ent0002"><rect fill="#F1F1F1" height="103.8633" rx="2.5" ry="2.5" style="stroke:#181818;stroke-width:0.5;" width="87.2412" x="648" y="1104"/><ellipse cx="663" cy="1120" fill="#EB937F" rx="11" ry="11" style="stroke:#181818;stroke-width:1;"/><path d="M661.8594,1120.7969 L661.8594,1123.2969 L666.1875,1123.2969 L666.1875,1122.375 Q666.1875,1121.7656 666.4219,1121.5 Q666.6719,1121.2344 667.0469,1121.2344 Q667.4219,1121.2344 667.6563,1121.5 Q667.8906,1121.7656 667.8906,1122.375 L667.8906,1125 L659.8906,1125 Q659.2656,1125 659,1124.7656 Q658.75,1124.5313 658.75,1124.1406 Q658.75,1123.7656 659.0156,1123.5313 Q659.2813,1123.2969 659.8906,1123.2969 L660.1563,1123.2969 L660.1563,1116.6406 L659.8906,1116.6406 Q659.2656,1116.6406 659,1116.4063 Q658.75,1116.1719 658.75,1115.7813 Q658.75,1115.4063 659,1115.1719 Q659.2656,1114.9375 659.8906,1114.9375 L667.5156,1114.9375 L667.5156,1117.5313 Q667.5156,1118.1406 667.2813,1118.4063 Q667.0625,1118.6563 666.6719,1118.6563 Q666.2969,1118.6563 666.0625,1118.4063 Q665.8281,1118.1406 665.8281,1117.5313 L665.8281,1116.6406 L661.8594,1116.6406 L661.8594,1119.0938 L663.3438,1119.0938 Q663.3438,1118.4375 663.4688,1118.25 Q663.7344,1117.8438 664.2031,1117.8438 Q664.5781,1117.8438 664.8125,1118.1094 Q665.0469,1118.3594 665.0469,1118.9688 L665.0469,1120.9375 Q665.0469,1121.4844 664.9219,1121.6719 Q664.6563,1122.0625 664.2031,1122.0625 Q663.7344,1122.0625 663.4688,1121.6563 Q663.3438,1121.4688 663.3438,1120.7969 L661.8594,1120.7969 Z " fill="#000000"/><text fill="#000000" font-family="sans-serif" font-size="14" lengthAdjust="spacing" textLength="55.2412" x="677" y="1125.7969">Direction</text><line style="stroke:#181818;stroke-width:0.5;" x1="649" x2="734.2412" y1="1136" y2="1136"/><text fill="#000000" font-family="sans-serif" font-size="14" lengthAdjust="spacing" textLength="19.4482" x="654" y="1155.1074">UP</text><text fill="#000000" font-family="sans-serif" font-size="14" lengthAdjust="spacing" textLength="44.3242" x="654" y="1173.7285">DOWN</text><text fill="#000000" font-family="sans-serif" font-size="14" lengthAdjust="spacing" textLength="31.124" x="654" y="1192.3496">IDLE</text><line style="stroke:#181818;stroke-width:0.5;" x1="649" x2="734.2412" y1="1199.8633" y2="1199.8633"/></g><!--class Call--><g class="entity" data-qualified-name="Call" data-source-line="16" id="ent0003"><rect fill="#F1F1F1" height="122.4844" rx="2.5" ry="2.5" style="stroke:#181818;stroke-width:0.5;" width="189.3994" x="7" y="1095"/><ellipse cx="85.3911" cy="1111" fill="#ADD1B2" rx="11" ry="11" style="stroke:#181818;stroke-width:1;"/><path d="M88.1567,1106.875 Q88.313,1106.6563 88.5005,1106.5469 Q88.688,1106.4375 88.9067,1106.4375 Q89.2817,1106.4375 89.5161,1106.7031 Q89.7505,1106.9531 89.7505,1107.5625 L89.7505,1109.0156 Q89.7505,1109.625 89.5161,1109.8906 Q89.2817,1110.1563 88.9067,1110.1563 Q88.563,1110.1563 88.3599,1109.9531 Q88.1567,1109.7656 88.0474,1109.25 Q88.0005,1108.8906 87.813,1108.7031 Q87.4849,1108.3281 86.8755,1108.1094 Q86.2661,1107.8906 85.6411,1107.8906 Q84.8755,1107.8906 84.2349,1108.2188 Q83.6099,1108.5469 83.1099,1109.2969 Q82.6255,1110.0469 82.6255,1111.0781 L82.6255,1112.1719 Q82.6255,1113.4063 83.5161,1114.2344 Q84.4067,1115.0469 86.0005,1115.0469 Q86.938,1115.0469 87.5942,1114.7969 Q87.9849,1114.6406 88.4067,1114.2031 Q88.6724,1113.9375 88.813,1113.8594 Q88.9692,1113.7813 89.1724,1113.7813 Q89.5005,1113.7813 89.7505,1114.0469 Q90.0161,1114.2969 90.0161,1114.6406 Q90.0161,1114.9844 89.6724,1115.3906 Q89.1724,1115.9688 88.3755,1116.2969 Q87.2974,1116.75 86.0005,1116.75 Q84.4849,1116.75 83.2817,1116.125 Q82.2974,1115.625 81.6099,1114.5625 Q80.9224,1113.4844 80.9224,1112.2031 L80.9224,1111.0469 Q80.9224,1109.7188 81.5317,1108.5781 Q82.1567,1107.4219 83.2505,1106.8125 Q84.3442,1106.1875 85.5786,1106.1875 Q86.313,1106.1875 86.9536,1106.3594 Q87.6099,1106.5156 88.1567,1106.875 Z " fill="#000000"/><text fill="#000000" font-family="sans-serif" font-size="14" lengthAdjust="spacing" textLength="24.1172" x="105.8911" y="1116.7969">Call</text><line style="stroke:#181818;stroke-width:0.5;" x1="8" x2="195.3994" y1="1127" y2="1127"/><g data-visibility-modifier="PRIVATE_FIELD"><rect fill="none" height="6" style="stroke:#C82930;stroke-width:1;" width="6" x="15" y="1138.8105"/></g><text fill="#000000" font-family="sans-serif" font-size="14" lengthAdjust="spacing" textLength="77.7998" x="27" y="1146.1074">int startFloor</text><g data-visibility-modifier="PRIVATE_FIELD"><rect fill="none" height="6" style="stroke:#C82930;stroke-width:1;" width="6" x="15" y="1157.4316"/></g><text fill="#000000" font-family="sans-serif" font-size="14" lengthAdjust="spacing" textLength="73.9307" x="27" y="1164.7285">int endFloor</text><line style="stroke:#181818;stroke-width:0.5;" x1="8" x2="195.3994" y1="1172.2422" y2="1172.2422"/><g data-visibility-modifier="PUBLIC_METHOD"><ellipse cx="18" cy="1187.0527" fill="#84BE84" rx="3" ry="3" style="stroke:#038048;stroke-width:1;"/></g><text fill="#000000" font-family="sans-serif" font-size="14" lengthAdjust="spacing" textLength="129.1582" x="27" y="1191.3496">Call(int start, int end)</text><g data-visibility-modifier="PUBLIC_METHOD"><ellipse cx="18" cy="1205.6738" fill="#84BE84" rx="3" ry="3" style="stroke:#038048;stroke-width:1;"/></g><text fill="#000000" font-family="sans-serif" font-size="14" lengthAdjust="spacing" textLength="163.3994" x="27" y="1209.9707">Call readInCall(String line)</text></g><!--class Simulator--><g class="entity" data-qualified-name="Simulator" data-source-line="26" id="ent0004"><rect fill="#F1F1F1" height="234.2109" rx="2.5" ry="2.5" style="stroke:#181818;stroke-width:0.5;" width="251.6201" x="230.5" y="7"/><ellipse cx="322.4946" cy="23" fill="#ADD1B2" rx="11" ry="11" style="stroke:#181818;stroke-width:1;"/><path d="M325.2603,18.875 Q325.4165,18.6563 325.604,18.5469 Q325.7915,18.4375 326.0103,18.4375 Q326.3853,18.4375 326.6196,18.7031 Q326.854,18.9531 326.854,19.5625 L326.854,21.0156 Q326.854,21.625 326.6196,21.8906 Q326.3853,22.1563 326.0103,22.1563 Q325.6665,22.1563 325.4634,21.9531 Q325.2603,21.7656 325.1509,21.25 Q325.104,20.8906 324.9165,20.7031 Q324.5884,20.3281 323.979,20.1094 Q323.3696,19.8906 322.7446,19.8906 Q321.979,19.8906 321.3384,20.2188 Q320.7134,20.5469 320.2134,21.2969 Q319.729,22.0469 319.729,23.0781 L319.729,24.1719 Q319.729,25.4063 320.6196,26.2344 Q321.5103,27.0469 323.104,27.0469 Q324.0415,27.0469 324.6978,26.7969 Q325.0884,26.6406 325.5103,26.2031 Q325.7759,25.9375 325.9165,25.8594 Q326.0728,25.7813 326.2759,25.7813 Q326.604,25.7813 326.854,26.0469 Q327.1196,26.2969 327.1196,26.6406 Q327.1196,26.9844 326.7759,27.3906 Q326.2759,27.9688 325.479,28.2969 Q324.4009,28.75 323.104,28.75 Q321.5884,28.75 320.3853,28.125 Q319.4009,27.625 318.7134,26.5625 Q318.0259,25.4844 318.0259,24.2031 L318.0259,23.0469 Q318.0259,21.7188 318.6353,20.5781 Q319.2603,19.4219 320.354,18.8125 Q321.4478,18.1875 322.6821,18.1875 Q323.4165,18.1875 324.0571,18.3594 Q324.7134,18.5156 325.2603,18.875 Z " fill="#000000"/><text fill="#000000" font-family="sans-serif" font-size="14" lengthAdjust="spacing" textLength="59.1309" x="342.9946" y="28.7969">Simulator</text><line style="stroke:#181818;stroke-width:0.5;" x1="231.5" x2="481.1201" y1="39" y2="39"/><g data-visibility-modifier="PRIVATE_FIELD"><rect fill="none" height="6" style="stroke:#C82930;stroke-width:1;" width="6" x="238.5" y="50.8105"/></g><text fill="#000000" font-family="sans-serif" font-size="14" lengthAdjust="spacing" textLength="101.9648" x="250.5" y="58.1074">Building building</text><g data-visibility-modifier="PRIVATE_FIELD"><rect fill="none" height="6" style="stroke:#C82930;stroke-width:1;" width="6" x="238.5" y="69.4316"/></g><text fill="#000000" font-family="sans-serif" font-size="14" lengthAdjust="spacing" textLength="127.6338" x="250.5" y="76.7285">Scheduler scheduler</text><g data-visibility-modifier="PRIVATE_FIELD"><rect fill="none" height="6" style="stroke:#C82930;stroke-width:1;" width="6" x="238.5" y="88.0527"/></g><text fill="#000000" font-family="sans-serif" font-size="14" lengthAdjust="spacing" textLength="84.041" x="250.5" y="95.3496">int roundNum</text><line style="stroke:#181818;stroke-width:0.5;" x1="231.5" x2="481.1201" y1="102.8633" y2="102.8633"/><g data-visibility-modifier="PUBLIC_METHOD"><ellipse cx="241.5" cy="117.6738" fill="#84BE84" rx="3" ry="3" style="stroke:#038048;stroke-width:1;"/></g><text fill="#000000" font-family="sans-serif" font-size="14" lengthAdjust="spacing" textLength="122.1924" x="250.5" y="121.9707">void handleRound()</text><g data-visibility-modifier="PUBLIC_METHOD"><ellipse cx="241.5" cy="136.2949" fill="#84BE84" rx="3" ry="3" style="stroke:#038048;stroke-width:1;"/></g><text fill="#000000" font-family="sans-serif" font-size="14" lengthAdjust="spacing" textLength="124.4961" x="250.5" y="140.5918">void runSimulation()</text><g data-visibility-modifier="PUBLIC_METHOD"><ellipse cx="241.5" cy="154.916" fill="#84BE84" rx="3" ry="3" style="stroke:#038048;stroke-width:1;"/></g><text fill="#000000" font-family="sans-serif" font-size="14" lengthAdjust="spacing" textLength="107.3857" x="250.5" y="159.2129">void printRound()</text><g data-visibility-modifier="PUBLIC_METHOD"><ellipse cx="241.5" cy="173.5371" fill="#84BE84" rx="3" ry="3" style="stroke:#038048;stroke-width:1;"/></g><text fill="#000000" font-family="sans-serif" font-size="14" lengthAdjust="spacing" textLength="171.9854" x="250.5" y="177.834">boolean isSimulationDone()</text><g data-visibility-modifier="PUBLIC_METHOD"><ellipse cx="241.5" cy="192.1582" fill="#84BE84" rx="3" ry="3" style="stroke:#038048;stroke-width:1;"/></g><text fill="#000000" font-family="sans-serif" font-size="14" lengthAdjust="spacing" textLength="225.6201" x="250.5" y="196.4551">String callFormatter(List&lt;Call&gt; calls)</text><g data-visibility-modifier="PUBLIC_METHOD"><ellipse cx="241.5" cy="210.7793" fill="#84BE84" rx="3" ry="3" style="stroke:#038048;stroke-width:1;"/></g><text fill="#000000" font-family="sans-serif" font-size="14" lengthAdjust="spacing" textLength="109.71" x="250.5" y="215.0762">void readInCalls()</text><g data-visibility-modifier="PUBLIC_METHOD"><ellipse cx="241.5" cy="229.4004" fill="#84BE84" rx="3" ry="3" style="stroke:#038048;stroke-width:1;"/></g><text fill="#000000" font-family="sans-serif" font-size="14" lengthAdjust="spacing" textLength="181.2822" x="250.5" y="233.6973">static void main(String[] args)</text></g><!--class Building--><g class="entity" data-qualified-name="Building" data-source-line="43" id="ent0005"><rect fill="#F1F1F1" height="215.5898" rx="2.5" ry="2.5" style="stroke:#181818;stroke-width:0.5;" width="810.3691" x="656.5" y="301"/><ellipse cx="1032.5278" cy="317" fill="#ADD1B2" rx="11" ry="11" style="stroke:#181818;stroke-width:1;"/><path d="M1035.2935,312.875 Q1035.4497,312.6563 1035.6372,312.5469 Q1035.8247,312.4375 1036.0435,312.4375 Q1036.4185,312.4375 1036.6528,312.7031 Q1036.8872,312.9531 1036.8872,313.5625 L1036.8872,315.0156 Q1036.8872,315.625 1036.6528,315.8906 Q1036.4185,316.1563 1036.0435,316.1563 Q1035.6997,316.1563 1035.4966,315.9531 Q1035.2935,315.7656 1035.1841,315.25 Q1035.1372,314.8906 1034.9497,314.7031 Q1034.6216,314.3281 1034.0122,314.1094 Q1033.4028,313.8906 1032.7778,313.8906 Q1032.0122,313.8906 1031.3716,314.2188 Q1030.7466,314.5469 1030.2466,315.2969 Q1029.7622,316.0469 1029.7622,317.0781 L1029.7622,318.1719 Q1029.7622,319.4063 1030.6528,320.2344 Q1031.5435,321.0469 1033.1372,321.0469 Q1034.0747,321.0469 1034.731,320.7969 Q1035.1216,320.6406 1035.5435,320.2031 Q1035.8091,319.9375 1035.9497,319.8594 Q1036.106,319.7813 1036.3091,319.7813 Q1036.6372,319.7813 1036.8872,320.0469 Q1037.1528,320.2969 1037.1528,320.6406 Q1037.1528,320.9844 1036.8091,321.3906 Q1036.3091,321.9688 1035.5122,322.2969 Q1034.4341,322.75 1033.1372,322.75 Q1031.6216,322.75 1030.4185,322.125 Q1029.4341,321.625 1028.7466,320.5625 Q1028.0591,319.4844 1028.0591,318.2031 L1028.0591,317.0469 Q1028.0591,315.7188 1028.6685,314.5781 Q1029.2935,313.4219 1030.3872,312.8125 Q1031.481,312.1875 1032.7153,312.1875 Q1033.4497,312.1875 1034.0903,312.3594 Q1034.7466,312.5156 1035.2935,312.875 Z " fill="#000000"/><text fill="#000000" font-family="sans-serif" font-size="14" lengthAdjust="spacing" textLength="49.8135" x="1053.0278" y="322.7969">Building</text><line style="stroke:#181818;stroke-width:0.5;" x1="657.5" x2="1465.8691" y1="333" y2="333"/><g data-visibility-modifier="PRIVATE_FIELD"><rect fill="none" height="6" style="stroke:#C82930;stroke-width:1;" width="6" x="664.5" y="344.8105"/></g><text fill="#000000" font-family="sans-serif" font-size="14" lengthAdjust="spacing" textLength="84.8066" x="676.5" y="352.1074">int numFloors</text><g data-visibility-modifier="PRIVATE_FIELD"><rect fill="none" height="6" style="stroke:#C82930;stroke-width:1;" width="6" x="664.5" y="363.4316"/></g><text fill="#000000" font-family="sans-serif" font-size="14" lengthAdjust="spacing" textLength="164.9785" x="676.5" y="370.7285">List&lt;Elevator&gt; elevatorList</text><line style="stroke:#181818;stroke-width:0.5;" x1="657.5" x2="1465.8691" y1="378.2422" y2="378.2422"/><g data-visibility-modifier="PUBLIC_METHOD"><ellipse cx="667.5" cy="393.0527" fill="#84BE84" rx="3" ry="3" style="stroke:#038048;stroke-width:1;"/></g><text fill="#000000" font-family="sans-serif" font-size="14" lengthAdjust="spacing" textLength="784.3691" x="676.5" y="397.3496">Building(int numFloors, int numStandardElevator, int numFreightElevator, int numPentHouseElevator, int numExpressElevator)</text><g data-visibility-modifier="PUBLIC_METHOD"><ellipse cx="667.5" cy="411.6738" fill="#84BE84" rx="3" ry="3" style="stroke:#038048;stroke-width:1;"/></g><text fill="#000000" font-family="sans-serif" font-size="14" lengthAdjust="spacing" textLength="230.3574" x="676.5" y="415.9707">void addStandardElevators(int count)</text><g data-visibility-modifier="PUBLIC_METHOD"><ellipse cx="667.5" cy="430.2949" fill="#84BE84" rx="3" ry="3" style="stroke:#038048;stroke-width:1;"/></g><text fill="#000000" font-family="sans-serif" font-size="14" lengthAdjust="spacing" textLength="217.1094" x="676.5" y="434.5918">void addFreightElevators(int count)</text><g data-visibility-modifier="PUBLIC_METHOD"><ellipse cx="667.5" cy="448.916" fill="#84BE84" rx="3" ry="3" style="stroke:#038048;stroke-width:1;"/></g><text fill="#000000" font-family="sans-serif" font-size="14" lengthAdjust="spacing" textLength="242.8057" x="676.5" y="453.2129">void addPentHouseElevators(int count)</text><g data-visibility-modifier="PUBLIC_METHOD"><ellipse cx="667.5" cy="467.5371" fill="#84BE84" rx="3" ry="3" style="stroke:#038048;stroke-width:1;"/></g><text fill="#000000" font-family="sans-serif" font-size="14" lengthAdjust="spacing" textLength="224.1094" x="676.5" y="471.834">void addExpressElevators(int count)</text><g data-visibility-modifier="PUBLIC_METHOD"><ellipse cx="667.5" cy="486.1582" fill="#84BE84" rx="3" ry="3" style="stroke:#038048;stroke-width:1;"/></g><text fill="#000000" font-family="sans-serif" font-size="14" lengthAdjust="spacing" textLength="180.5303" x="676.5" y="490.4551">List&lt;Elevator&gt; getElevators()</text><g data-visibility-modifier="PUBLIC_METHOD"><ellipse cx="667.5" cy="504.7793" fill="#84BE84" rx="3" ry="3" style="stroke:#038048;stroke-width:1;"/></g><text fill="#000000" font-family="sans-serif" font-size="14" lengthAdjust="spacing" textLength="187.5371" x="676.5" y="509.0762">Elevator getElevator(int index)</text></g><!--class Scheduler--><g class="entity" data-qualified-name="Scheduler" data-source-line="59" id="ent0006"><rect fill="#F1F1F1" height="159.7266" rx="2.5" ry="2.5" style="stroke:#181818;stroke-width:0.5;" width="359.8125" x="176.5" y="329"/><ellipse cx="320.6357" cy="345" fill="#A9DCDF" rx="11" ry="11" style="stroke:#181818;stroke-width:1;"/><path d="M322.8232,346.7656 L318.6826,346.7656 L318.2607,347.7969 L318.6826,347.7969 Q319.292,347.7969 319.5576,348.0313 Q319.8232,348.2656 319.8232,348.6563 Q319.8232,349.0313 319.5576,349.2656 Q319.292,349.5 318.6826,349.5 L316.3857,349.5 Q315.7764,349.5 315.5264,349.2656 Q315.2607,349.0313 315.2607,348.6406 Q315.2607,348.2656 315.542,348.0313 Q315.8076,347.7813 316.4326,347.7969 L319.1045,341.1406 L317.9951,341.1406 Q317.3857,341.1406 317.1201,340.9063 Q316.8545,340.6719 316.8545,340.2813 Q316.8545,339.9063 317.1201,339.6719 Q317.3857,339.4375 317.9951,339.4375 L321.667,339.4375 L325.0576,347.7969 Q325.6514,347.7969 325.8389,347.9375 Q326.2295,348.2031 326.2295,348.6563 Q326.2295,349.0313 325.9639,349.2656 Q325.7139,349.5 325.1045,349.5 L322.8076,349.5 Q322.1982,349.5 321.9326,349.2656 Q321.667,349.0313 321.667,348.6406 Q321.667,348.2656 321.9326,348.0313 Q322.1982,347.7969 322.8076,347.7969 L323.2295,347.7969 L322.8232,346.7656 Z M322.1045,345.0625 L320.7451,341.6875 L319.3701,345.0625 L322.1045,345.0625 Z " fill="#000000"/><text fill="#000000" font-family="sans-serif" font-size="14" font-style="italic" lengthAdjust="spacing" textLength="63.041" x="341.1357" y="350.7969">Scheduler</text><line style="stroke:#181818;stroke-width:0.5;" x1="177.5" x2="535.3125" y1="361" y2="361"/><g data-visibility-modifier="PRIVATE_FIELD"><rect fill="none" height="6" style="stroke:#C82930;stroke-width:1;" width="6" x="184.5" y="372.8105"/></g><text fill="#000000" font-family="sans-serif" font-size="14" lengthAdjust="spacing" textLength="168.875" x="196.5" y="380.1074">List&lt;Call&gt; unassignedCalls</text><line style="stroke:#181818;stroke-width:0.5;" x1="177.5" x2="535.3125" y1="387.6211" y2="387.6211"/><g data-visibility-modifier="PUBLIC_METHOD"><ellipse cx="187.5" cy="402.4316" fill="#84BE84" rx="3" ry="3" style="stroke:#038048;stroke-width:1;"/></g><text fill="#000000" font-family="sans-serif" font-size="14" lengthAdjust="spacing" textLength="72.3652" x="196.5" y="406.7285">Scheduler()</text><g data-visibility-modifier="PUBLIC_METHOD"><ellipse cx="187.5" cy="421.0527" fill="#84BE84" rx="3" ry="3" style="stroke:#038048;stroke-width:1;"/></g><text fill="#000000" font-family="sans-serif" font-size="14" lengthAdjust="spacing" textLength="121.3789" x="196.5" y="425.3496">void addCall(Call c)</text><g data-visibility-modifier="PUBLIC_METHOD"><ellipse cx="187.5" cy="439.6738" fill="#84BE84" rx="3" ry="3" style="stroke:#038048;stroke-width:1;"/></g><text fill="#000000" font-family="sans-serif" font-size="14" lengthAdjust="spacing" textLength="144.7031" x="196.5" y="443.9707">void removeCall(Call c)</text><g data-visibility-modifier="PUBLIC_METHOD"><ellipse cx="187.5" cy="458.2949" fill="#84BE84" rx="3" ry="3" style="stroke:#038048;stroke-width:1;"/></g><text fill="#000000" font-family="sans-serif" font-size="14" lengthAdjust="spacing" textLength="199.9854" x="196.5" y="462.5918">List&lt;Call&gt; getUnassignedCalls()</text><g data-visibility-modifier="PUBLIC_METHOD"><ellipse cx="187.5" cy="476.916" fill="#84BE84" rx="3" ry="3" style="stroke:#038048;stroke-width:1;"/></g><text fill="#000000" font-family="sans-serif" font-size="14" lengthAdjust="spacing" textLength="333.8125" x="196.5" y="481.2129">Elevator findElevatorForCall(List&lt;Elevator&gt; elevators)</text></g><!--class SimpleScheduler--><g class="entity" data-qualified-name="SimpleScheduler" data-source-line="69" id="ent0007"><rect fill="#F1F1F1" height="66.6211" rx="2.5" ry="2.5" style="stroke:#181818;stroke-width:0.5;" width="402.5986" x="593" y="772.5"/><ellipse cx="737.1323" cy="788.5" fill="#ADD1B2" rx="11" ry="11" style="stroke:#181818;stroke-width:1;"/><path d="M739.8979,784.375 Q740.0542,784.1563 740.2417,784.0469 Q740.4292,783.9375 740.6479,783.9375 Q741.0229,783.9375 741.2573,784.2031 Q741.4917,784.4531 741.4917,785.0625 L741.4917,786.5156 Q741.4917,787.125 741.2573,787.3906 Q741.0229,787.6563 740.6479,787.6563 Q740.3042,787.6563 740.1011,787.4531 Q739.8979,787.2656 739.7886,786.75 Q739.7417,786.3906 739.5542,786.2031 Q739.2261,785.8281 738.6167,785.6094 Q738.0073,785.3906 737.3823,785.3906 Q736.6167,785.3906 735.9761,785.7188 Q735.3511,786.0469 734.8511,786.7969 Q734.3667,787.5469 734.3667,788.5781 L734.3667,789.6719 Q734.3667,790.9063 735.2573,791.7344 Q736.1479,792.5469 737.7417,792.5469 Q738.6792,792.5469 739.3354,792.2969 Q739.7261,792.1406 740.1479,791.7031 Q740.4136,791.4375 740.5542,791.3594 Q740.7104,791.2813 740.9136,791.2813 Q741.2417,791.2813 741.4917,791.5469 Q741.7573,791.7969 741.7573,792.1406 Q741.7573,792.4844 741.4136,792.8906 Q740.9136,793.4688 740.1167,793.7969 Q739.0386,794.25 737.7417,794.25 Q736.2261,794.25 735.0229,793.625 Q734.0386,793.125 733.3511,792.0625 Q732.6636,790.9844 732.6636,789.7031 L732.6636,788.5469 Q732.6636,787.2188 733.2729,786.0781 Q733.8979,784.9219 734.9917,784.3125 Q736.0854,783.6875 737.3198,783.6875 Q738.0542,783.6875 738.6948,783.8594 Q739.3511,784.0156 739.8979,784.375 Z " fill="#000000"/><text fill="#000000" font-family="sans-serif" font-size="14" lengthAdjust="spacing" textLength="105.834" x="757.6323" y="794.2969">SimpleScheduler</text><line style="stroke:#181818;stroke-width:0.5;" x1="594" x2="994.5986" y1="804.5" y2="804.5"/><line style="stroke:#181818;stroke-width:0.5;" x1="594" x2="994.5986" y1="812.5" y2="812.5"/><g data-visibility-modifier="PUBLIC_METHOD"><ellipse cx="604" cy="827.3105" fill="#84BE84" rx="3" ry="3" style="stroke:#038048;stroke-width:1;"/></g><text fill="#000000" font-family="sans-serif" font-size="14" lengthAdjust="spacing" textLength="376.5986" x="613" y="831.6074">Elevator findElevatorForCall(List&lt;Elevator&gt; elevators, Call c)</text></g><!--class ComplexScheduler--><g class="entity" data-qualified-name="ComplexScheduler" data-source-line="73" id="ent0008"><rect fill="#F1F1F1" height="66.6211" rx="2.5" ry="2.5" style="stroke:#181818;stroke-width:0.5;" width="402.5986" x="155" y="772.5"/><ellipse cx="292.9082" cy="788.5" fill="#ADD1B2" rx="11" ry="11" style="stroke:#181818;stroke-width:1;"/><path d="M295.6738,784.375 Q295.8301,784.1563 296.0176,784.0469 Q296.2051,783.9375 296.4238,783.9375 Q296.7988,783.9375 297.0332,784.2031 Q297.2676,784.4531 297.2676,785.0625 L297.2676,786.5156 Q297.2676,787.125 297.0332,787.3906 Q296.7988,787.6563 296.4238,787.6563 Q296.0801,787.6563 295.877,787.4531 Q295.6738,787.2656 295.5645,786.75 Q295.5176,786.3906 295.3301,786.2031 Q295.002,785.8281 294.3926,785.6094 Q293.7832,785.3906 293.1582,785.3906 Q292.3926,785.3906 291.752,785.7188 Q291.127,786.0469 290.627,786.7969 Q290.1426,787.5469 290.1426,788.5781 L290.1426,789.6719 Q290.1426,790.9063 291.0332,791.7344 Q291.9238,792.5469 293.5176,792.5469 Q294.4551,792.5469 295.1113,792.2969 Q295.502,792.1406 295.9238,791.7031 Q296.1895,791.4375 296.3301,791.3594 Q296.4863,791.2813 296.6895,791.2813 Q297.0176,791.2813 297.2676,791.5469 Q297.5332,791.7969 297.5332,792.1406 Q297.5332,792.4844 297.1895,792.8906 Q296.6895,793.4688 295.8926,793.7969 Q294.8145,794.25 293.5176,794.25 Q292.002,794.25 290.7988,793.625 Q289.8145,793.125 289.127,792.0625 Q288.4395,790.9844 288.4395,789.7031 L288.4395,788.5469 Q288.4395,787.2188 289.0488,786.0781 Q289.6738,784.9219 290.7676,784.3125 Q291.8613,783.6875 293.0957,783.6875 Q293.8301,783.6875 294.4707,783.8594 Q295.127,784.0156 295.6738,784.375 Z " fill="#000000"/><text fill="#000000" font-family="sans-serif" font-size="14" lengthAdjust="spacing" textLength="118.2822" x="313.4082" y="794.2969">ComplexScheduler</text><line style="stroke:#181818;stroke-width:0.5;" x1="156" x2="556.5986" y1="804.5" y2="804.5"/><line style="stroke:#181818;stroke-width:0.5;" x1="156" x2="556.5986" y1="812.5" y2="812.5"/><g data-visibility-modifier="PUBLIC_METHOD"><ellipse cx="166" cy="827.3105" fill="#84BE84" rx="3" ry="3" style="stroke:#038048;stroke-width:1;"/></g><text fill="#000000" font-family="sans-serif" font-size="14" lengthAdjust="spacing" textLength="376.5986" x="175" y="831.6074">Elevator findElevatorForCall(List&lt;Elevator&gt; elevators, Call c)</text></g><!--class Elevator--><g class="entity" data-qualified-name="Elevator" data-source-line="83" id="ent0011"><rect fill="#F1F1F1" height="457.6641" rx="2.5" ry="2.5" style="stroke:#181818;stroke-width:0.5;" width="232.2197" x="1031.5" y="577"/><ellipse cx="1117.6807" cy="593" fill="#A9DCDF" rx="11" ry="11" style="stroke:#181818;stroke-width:1;"/><path d="M1119.8682,594.7656 L1115.7275,594.7656 L1115.3057,595.7969 L1115.7275,595.7969 Q1116.3369,595.7969 1116.6025,596.0313 Q1116.8682,596.2656 1116.8682,596.6563 Q1116.8682,597.0313 1116.6025,597.2656 Q1116.3369,597.5 1115.7275,597.5 L1113.4307,597.5 Q1112.8213,597.5 1112.5713,597.2656 Q1112.3057,597.0313 1112.3057,596.6406 Q1112.3057,596.2656 1112.5869,596.0313 Q1112.8525,595.7813 1113.4775,595.7969 L1116.1494,589.1406 L1115.04,589.1406 Q1114.4307,589.1406 1114.165,588.9063 Q1113.8994,588.6719 1113.8994,588.2813 Q1113.8994,587.9063 1114.165,587.6719 Q1114.4307,587.4375 1115.04,587.4375 L1118.7119,587.4375 L1122.1025,595.7969 Q1122.6963,595.7969 1122.8838,595.9375 Q1123.2744,596.2031 1123.2744,596.6563 Q1123.2744,597.0313 1123.0088,597.2656 Q1122.7588,597.5 1122.1494,597.5 L1119.8525,597.5 Q1119.2432,597.5 1118.9775,597.2656 Q1118.7119,597.0313 1118.7119,596.6406 Q1118.7119,596.2656 1118.9775,596.0313 Q1119.2432,595.7969 1119.8525,595.7969 L1120.2744,595.7969 L1119.8682,594.7656 Z M1119.1494,593.0625 L1117.79,589.6875 L1116.415,593.0625 L1119.1494,593.0625 Z " fill="#000000"/><text fill="#000000" font-family="sans-serif" font-size="14" font-style="italic" lengthAdjust="spacing" textLength="51.3584" x="1138.1807" y="598.7969">Elevator</text><line style="stroke:#181818;stroke-width:0.5;" x1="1032.5" x2="1262.7197" y1="609" y2="609"/><g data-visibility-modifier="PRIVATE_FIELD"><rect fill="none" height="6" style="stroke:#C82930;stroke-width:1;" width="6" x="1039.5" y="620.8105"/></g><text fill="#000000" font-family="sans-serif" font-size="14" lengthAdjust="spacing" textLength="94.1445" x="1051.5" y="628.1074">int currentFloor</text><g data-visibility-modifier="PRIVATE_FIELD"><rect fill="none" height="6" style="stroke:#C82930;stroke-width:1;" width="6" x="1039.5" y="639.4316"/></g><text fill="#000000" font-family="sans-serif" font-size="14" lengthAdjust="spacing" textLength="105.8408" x="1051.5" y="646.7285">int currentPeople</text><g data-visibility-modifier="PRIVATE_FIELD"><rect fill="none" height="6" style="stroke:#C82930;stroke-width:1;" width="6" x="1039.5" y="658.0527"/></g><text fill="#000000" font-family="sans-serif" font-size="14" lengthAdjust="spacing" textLength="127.6543" x="1051.5" y="665.3496">boolean pickupDone</text><g data-visibility-modifier="PRIVATE_FIELD"><rect fill="none" height="6" style="stroke:#C82930;stroke-width:1;" width="6" x="1039.5" y="676.6738"/></g><text fill="#000000" font-family="sans-serif" font-size="14" lengthAdjust="spacing" textLength="112.0479" x="1051.5" y="683.9707">Direction direction</text><g data-visibility-modifier="PRIVATE_FIELD"><rect fill="none" height="6" style="stroke:#C82930;stroke-width:1;" width="6" x="1039.5" y="695.2949"/></g><text fill="#000000" font-family="sans-serif" font-size="14" lengthAdjust="spacing" textLength="151.7305" x="1051.5" y="702.5918">List&lt;Call&gt; callsServicing</text><g data-visibility-modifier="PRIVATE_FIELD"><rect fill="none" height="6" style="stroke:#C82930;stroke-width:1;" width="6" x="1039.5" y="713.916"/></g><text fill="#000000" font-family="sans-serif" font-size="14" lengthAdjust="spacing" textLength="120.6133" x="1051.5" y="721.2129">String printedName</text><line style="stroke:#181818;stroke-width:0.5;" x1="1032.5" x2="1262.7197" y1="728.7266" y2="728.7266"/><g data-visibility-modifier="PUBLIC_METHOD"><ellipse cx="1042.5" cy="743.5371" fill="#84BE84" rx="3" ry="3" style="stroke:#038048;stroke-width:1;"/></g><text fill="#000000" font-family="sans-serif" font-size="14" lengthAdjust="spacing" textLength="201.5439" x="1051.5" y="747.834">boolean canAcceptCall(Call call)</text><g data-visibility-modifier="PUBLIC_METHOD"><ellipse cx="1042.5" cy="762.1582" fill="#84BE84" rx="3" ry="3" style="stroke:#038048;stroke-width:1;"/></g><text fill="#000000" font-family="sans-serif" font-size="14" lengthAdjust="spacing" textLength="192.9717" x="1051.5" y="766.4551">boolean canVisitFloor(Call call)</text><g data-visibility-modifier="PUBLIC_METHOD"><ellipse cx="1042.5" cy="780.7793" fill="#84BE84" rx="3" ry="3" style="stroke:#038048;stroke-width:1;"/></g><text fill="#000000" font-family="sans-serif" font-size="14" lengthAdjust="spacing" textLength="152.4961" x="1051.5" y="785.0762">void assignCall(Call call)</text><g data-visibility-modifier="PUBLIC_METHOD"><ellipse cx="1042.5" cy="799.4004" fill="#84BE84" rx="3" ry="3" style="stroke:#038048;stroke-width:1;"/></g><text fill="#000000" font-family="sans-serif" font-size="14" lengthAdjust="spacing" textLength="183.6406" x="1051.5" y="803.6973">List&lt;Call&gt; getAssignedCalls()</text><g data-visibility-modifier="PUBLIC_METHOD"><ellipse cx="1042.5" cy="818.0215" fill="#84BE84" rx="3" ry="3" style="stroke:#038048;stroke-width:1;"/></g><text fill="#000000" font-family="sans-serif" font-size="14" lengthAdjust="spacing" textLength="126.041" x="1051.5" y="822.3184">int getCurrentFloor()</text><g data-visibility-modifier="PUBLIC_METHOD"><ellipse cx="1042.5" cy="836.6426" fill="#84BE84" rx="3" ry="3" style="stroke:#038048;stroke-width:1;"/></g><text fill="#000000" font-family="sans-serif" font-size="14" lengthAdjust="spacing" textLength="143.1582" x="1051.5" y="840.9395">Direction getDirection()</text><g data-visibility-modifier="PUBLIC_METHOD"><ellipse cx="1042.5" cy="855.2637" fill="#84BE84" rx="3" ry="3" style="stroke:#038048;stroke-width:1;"/></g><text fill="#000000" font-family="sans-serif" font-size="14" lengthAdjust="spacing" textLength="161.0684" x="1051.5" y="859.5605">int getCurrentOccupants()</text><g data-visibility-modifier="PUBLIC_METHOD"><ellipse cx="1042.5" cy="873.8848" fill="#84BE84" rx="3" ry="3" style="stroke:#038048;stroke-width:1;"/></g><text fill="#000000" font-family="sans-serif" font-size="14" lengthAdjust="spacing" textLength="206.2197" x="1051.5" y="878.1816">void idleBeforeDirectionChange()</text><g data-visibility-modifier="PUBLIC_METHOD"><ellipse cx="1042.5" cy="892.5059" fill="#84BE84" rx="3" ry="3" style="stroke:#038048;stroke-width:1;"/></g><text fill="#000000" font-family="sans-serif" font-size="14" lengthAdjust="spacing" textLength="116.7236" x="1051.5" y="896.8027">void changeFloor()</text><g data-visibility-modifier="PUBLIC_METHOD"><ellipse cx="1042.5" cy="911.127" fill="#84BE84" rx="3" ry="3" style="stroke:#038048;stroke-width:1;"/></g><text fill="#000000" font-family="sans-serif" font-size="14" lengthAdjust="spacing" textLength="159.5303" x="1051.5" y="915.4238">void reachedDestination()</text><g data-visibility-modifier="PRIVATE_METHOD"><rect fill="#F24D5C" height="6" style="stroke:#C82930;stroke-width:1;" width="6" x="1039.5" y="926.748"/></g><text fill="#000000" font-family="sans-serif" font-size="14" lengthAdjust="spacing" textLength="136.165" x="1051.5" y="934.0449">void moveToGround()</text><g data-visibility-modifier="PRIVATE_METHOD"><rect fill="#F24D5C" height="6" style="stroke:#C82930;stroke-width:1;" width="6" x="1039.5" y="945.3691"/></g><text fill="#000000" font-family="sans-serif" font-size="14" lengthAdjust="spacing" textLength="159.5098" x="1051.5" y="952.666">void moveToDestination()</text><g data-visibility-modifier="PRIVATE_METHOD"><rect fill="#F24D5C" height="6" style="stroke:#C82930;stroke-width:1;" width="6" x="1039.5" y="963.9902"/></g><text fill="#000000" font-family="sans-serif" font-size="14" lengthAdjust="spacing" textLength="171.1924" x="1051.5" y="971.2871">void determineDestination()</text><g data-visibility-modifier="PROTECTED_METHOD"><polygon fill="#FFFF44" points="1042.5,980.6113,1046.5,984.6113,1042.5,988.6113,1038.5,984.6113" style="stroke:#B38D22;stroke-width:1;"/></g><text fill="#000000" font-family="sans-serif" font-size="14" lengthAdjust="spacing" textLength="157.1582" x="1051.5" y="989.9082">getCallDirection(Call call)</text><g data-visibility-modifier="PROTECTED_METHOD"><polygon fill="#FFFF44" points="1042.5,999.2324,1046.5,1003.2324,1042.5,1007.2324,1038.5,1003.2324" style="stroke:#B38D22;stroke-width:1;"/></g><text fill="#000000" font-family="sans-serif" font-size="14" lengthAdjust="spacing" textLength="192.958" x="1051.5" y="1008.5293">getCallDirectionAtIdle(Call call)</text><g data-visibility-modifier="PROTECTED_METHOD"><polygon fill="#FFFF44" points="1042.5,1017.8535,1046.5,1021.8535,1042.5,1025.8535,1038.5,1021.8535" style="stroke:#B38D22;stroke-width:1;"/></g><text fill="#000000" font-family="sans-serif" font-size="14" lengthAdjust="spacing" textLength="196.0684" x="1051.5" y="1027.1504">getUpcomingDirection(Call call)</text></g><!--class StandardElevator--><g class="entity" data-qualified-name="StandardElevator" data-source-line="109" id="ent0012"><rect fill="#F1F1F1" height="85.2422" rx="2.5" ry="2.5" style="stroke:#181818;stroke-width:0.5;" width="227.5439" x="770.5" y="1113.5"/><ellipse cx="825.9326" cy="1129.5" fill="#ADD1B2" rx="11" ry="11" style="stroke:#181818;stroke-width:1;"/><path d="M828.6982,1125.375 Q828.8545,1125.1563 829.042,1125.0469 Q829.2295,1124.9375 829.4482,1124.9375 Q829.8232,1124.9375 830.0576,1125.2031 Q830.292,1125.4531 830.292,1126.0625 L830.292,1127.5156 Q830.292,1128.125 830.0576,1128.3906 Q829.8232,1128.6563 829.4482,1128.6563 Q829.1045,1128.6563 828.9014,1128.4531 Q828.6982,1128.2656 828.5889,1127.75 Q828.542,1127.3906 828.3545,1127.2031 Q828.0264,1126.8281 827.417,1126.6094 Q826.8076,1126.3906 826.1826,1126.3906 Q825.417,1126.3906 824.7764,1126.7188 Q824.1514,1127.0469 823.6514,1127.7969 Q823.167,1128.5469 823.167,1129.5781 L823.167,1130.6719 Q823.167,1131.9063 824.0576,1132.7344 Q824.9482,1133.5469 826.542,1133.5469 Q827.4795,1133.5469 828.1357,1133.2969 Q828.5264,1133.1406 828.9482,1132.7031 Q829.2139,1132.4375 829.3545,1132.3594 Q829.5107,1132.2813 829.7139,1132.2813 Q830.042,1132.2813 830.292,1132.5469 Q830.5576,1132.7969 830.5576,1133.1406 Q830.5576,1133.4844 830.2139,1133.8906 Q829.7139,1134.4688 828.917,1134.7969 Q827.8389,1135.25 826.542,1135.25 Q825.0264,1135.25 823.8232,1134.625 Q822.8389,1134.125 822.1514,1133.0625 Q821.4639,1131.9844 821.4639,1130.7031 L821.4639,1129.5469 Q821.4639,1128.2188 822.0732,1127.0781 Q822.6982,1125.9219 823.792,1125.3125 Q824.8857,1124.6875 826.1201,1124.6875 Q826.8545,1124.6875 827.4951,1124.8594 Q828.1514,1125.0156 828.6982,1125.375 Z " fill="#000000"/><text fill="#000000" font-family="sans-serif" font-size="14" lengthAdjust="spacing" textLength="108.1787" x="846.4326" y="1135.2969">StandardElevator</text><line style="stroke:#181818;stroke-width:0.5;" x1="771.5" x2="997.0439" y1="1145.5" y2="1145.5"/><line style="stroke:#181818;stroke-width:0.5;" x1="771.5" x2="997.0439" y1="1153.5" y2="1153.5"/><g data-visibility-modifier="PUBLIC_METHOD"><ellipse cx="781.5" cy="1168.3105" fill="#84BE84" rx="3" ry="3" style="stroke:#038048;stroke-width:1;"/></g><text fill="#000000" font-family="sans-serif" font-size="14" lengthAdjust="spacing" textLength="201.5439" x="790.5" y="1172.6074">boolean canAcceptCall(Call call)</text><g data-visibility-modifier="PUBLIC_METHOD"><ellipse cx="781.5" cy="1186.9316" fill="#84BE84" rx="3" ry="3" style="stroke:#038048;stroke-width:1;"/></g><text fill="#000000" font-family="sans-serif" font-size="14" lengthAdjust="spacing" textLength="192.9717" x="790.5" y="1191.2285">boolean canVisitFloor(Call call)</text></g><!--class FreightElevator--><g class="entity" data-qualified-name="FreightElevator" data-source-line="114" id="ent0013"><rect fill="#F1F1F1" height="85.2422" rx="2.5" ry="2.5" style="stroke:#181818;stroke-width:0.5;" width="227.5439" x="1033.5" y="1113.5"/><ellipse cx="1095.5566" cy="1129.5" fill="#ADD1B2" rx="11" ry="11" style="stroke:#181818;stroke-width:1;"/><path d="M1098.3223,1125.375 Q1098.4785,1125.1563 1098.666,1125.0469 Q1098.8535,1124.9375 1099.0723,1124.9375 Q1099.4473,1124.9375 1099.6816,1125.2031 Q1099.916,1125.4531 1099.916,1126.0625 L1099.916,1127.5156 Q1099.916,1128.125 1099.6816,1128.3906 Q1099.4473,1128.6563 1099.0723,1128.6563 Q1098.7285,1128.6563 1098.5254,1128.4531 Q1098.3223,1128.2656 1098.2129,1127.75 Q1098.166,1127.3906 1097.9785,1127.2031 Q1097.6504,1126.8281 1097.041,1126.6094 Q1096.4316,1126.3906 1095.8066,1126.3906 Q1095.041,1126.3906 1094.4004,1126.7188 Q1093.7754,1127.0469 1093.2754,1127.7969 Q1092.791,1128.5469 1092.791,1129.5781 L1092.791,1130.6719 Q1092.791,1131.9063 1093.6816,1132.7344 Q1094.5723,1133.5469 1096.166,1133.5469 Q1097.1035,1133.5469 1097.7598,1133.2969 Q1098.1504,1133.1406 1098.5723,1132.7031 Q1098.8379,1132.4375 1098.9785,1132.3594 Q1099.1348,1132.2813 1099.3379,1132.2813 Q1099.666,1132.2813 1099.916,1132.5469 Q1100.1816,1132.7969 1100.1816,1133.1406 Q1100.1816,1133.4844 1099.8379,1133.8906 Q1099.3379,1134.4688 1098.541,1134.7969 Q1097.4629,1135.25 1096.166,1135.25 Q1094.6504,1135.25 1093.4473,1134.625 Q1092.4629,1134.125 1091.7754,1133.0625 Q1091.0879,1131.9844 1091.0879,1130.7031 L1091.0879,1129.5469 Q1091.0879,1128.2188 1091.6973,1127.0781 Q1092.3223,1125.9219 1093.416,1125.3125 Q1094.5098,1124.6875 1095.7441,1124.6875 Q1096.4785,1124.6875 1097.1191,1124.8594 Q1097.7754,1125.0156 1098.3223,1125.375 Z " fill="#000000"/><text fill="#000000" font-family="sans-serif" font-size="14" lengthAdjust="spacing" textLength="94.9307" x="1116.0566" y="1135.2969">FreightElevator</text><line style="stroke:#181818;stroke-width:0.5;" x1="1034.5" x2="1260.0439" y1="1145.5" y2="1145.5"/><line style="stroke:#181818;stroke-width:0.5;" x1="1034.5" x2="1260.0439" y1="1153.5" y2="1153.5"/><g data-visibility-modifier="PUBLIC_METHOD"><ellipse cx="1044.5" cy="1168.3105" fill="#84BE84" rx="3" ry="3" style="stroke:#038048;stroke-width:1;"/></g><text fill="#000000" font-family="sans-serif" font-size="14" lengthAdjust="spacing" textLength="201.5439" x="1053.5" y="1172.6074">boolean canAcceptCall(Call call)</text><g data-visibility-modifier="PUBLIC_METHOD"><ellipse cx="1044.5" cy="1186.9316" fill="#84BE84" rx="3" ry="3" style="stroke:#038048;stroke-width:1;"/></g><text fill="#000000" font-family="sans-serif" font-size="14" lengthAdjust="spacing" textLength="192.9717" x="1053.5" y="1191.2285">boolean canVisitFloor(Call call)</text></g><!--class PentHouseElevator--><g class="entity" data-qualified-name="PentHouseElevator" data-source-line="119" id="ent0014"><rect fill="#F1F1F1" height="85.2422" rx="2.5" ry="2.5" style="stroke:#181818;stroke-width:0.5;" width="227.5439" x="1296.5" y="1113.5"/><ellipse cx="1345.7085" cy="1129.5" fill="#ADD1B2" rx="11" ry="11" style="stroke:#181818;stroke-width:1;"/><path d="M1348.4741,1125.375 Q1348.6304,1125.1563 1348.8179,1125.0469 Q1349.0054,1124.9375 1349.2241,1124.9375 Q1349.5991,1124.9375 1349.8335,1125.2031 Q1350.0679,1125.4531 1350.0679,1126.0625 L1350.0679,1127.5156 Q1350.0679,1128.125 1349.8335,1128.3906 Q1349.5991,1128.6563 1349.2241,1128.6563 Q1348.8804,1128.6563 1348.6772,1128.4531 Q1348.4741,1128.2656 1348.3647,1127.75 Q1348.3179,1127.3906 1348.1304,1127.2031 Q1347.8022,1126.8281 1347.1929,1126.6094 Q1346.5835,1126.3906 1345.9585,1126.3906 Q1345.1929,1126.3906 1344.5522,1126.7188 Q1343.9272,1127.0469 1343.4272,1127.7969 Q1342.9429,1128.5469 1342.9429,1129.5781 L1342.9429,1130.6719 Q1342.9429,1131.9063 1343.8335,1132.7344 Q1344.7241,1133.5469 1346.3179,1133.5469 Q1347.2554,1133.5469 1347.9116,1133.2969 Q1348.3022,1133.1406 1348.7241,1132.7031 Q1348.9897,1132.4375 1349.1304,1132.3594 Q1349.2866,1132.2813 1349.4897,1132.2813 Q1349.8179,1132.2813 1350.0679,1132.5469 Q1350.3335,1132.7969 1350.3335,1133.1406 Q1350.3335,1133.4844 1349.9897,1133.8906 Q1349.4897,1134.4688 1348.6929,1134.7969 Q1347.6147,1135.25 1346.3179,1135.25 Q1344.8022,1135.25 1343.5991,1134.625 Q1342.6147,1134.125 1341.9272,1133.0625 Q1341.2397,1131.9844 1341.2397,1130.7031 L1341.2397,1129.5469 Q1341.2397,1128.2188 1341.8491,1127.0781 Q1342.4741,1125.9219 1343.5679,1125.3125 Q1344.6616,1124.6875 1345.896,1124.6875 Q1346.6304,1124.6875 1347.271,1124.8594 Q1347.9272,1125.0156 1348.4741,1125.375 Z " fill="#000000"/><text fill="#000000" font-family="sans-serif" font-size="14" lengthAdjust="spacing" textLength="120.627" x="1366.2085" y="1135.2969">PentHouseElevator</text><line style="stroke:#181818;stroke-width:0.5;" x1="1297.5" x2="1523.0439" y1="1145.5" y2="1145.5"/><line style="stroke:#181818;stroke-width:0.5;" x1="1297.5" x2="1523.0439" y1="1153.5" y2="1153.5"/><g data-visibility-modifier="PUBLIC_METHOD"><ellipse cx="1307.5" cy="1168.3105" fill="#84BE84" rx="3" ry="3" style="stroke:#038048;stroke-width:1;"/></g><text fill="#000000" font-family="sans-serif" font-size="14" lengthAdjust="spacing" textLength="201.5439" x="1316.5" y="1172.6074">boolean canAcceptCall(Call call)</text><g data-visibility-modifier="PUBLIC_METHOD"><ellipse cx="1307.5" cy="1186.9316" fill="#84BE84" rx="3" ry="3" style="stroke:#038048;stroke-width:1;"/></g><text fill="#000000" font-family="sans-serif" font-size="14" lengthAdjust="spacing" textLength="192.9717" x="1316.5" y="1191.2285">boolean canVisitFloor(Call call)</text></g><!--class ExpressElevator--><g class="entity" data-qualified-name="ExpressElevator" data-source-line="124" id="ent0015"><rect fill="#F1F1F1" height="85.2422" rx="2.5" ry="2.5" style="stroke:#181818;stroke-width:0.5;" width="227.5439" x="1559.5" y="1113.5"/><ellipse cx="1618.0566" cy="1129.5" fill="#ADD1B2" rx="11" ry="11" style="stroke:#181818;stroke-width:1;"/><path d="M1620.8223,1125.375 Q1620.9785,1125.1563 1621.166,1125.0469 Q1621.3535,1124.9375 1621.5723,1124.9375 Q1621.9473,1124.9375 1622.1816,1125.2031 Q1622.416,1125.4531 1622.416,1126.0625 L1622.416,1127.5156 Q1622.416,1128.125 1622.1816,1128.3906 Q1621.9473,1128.6563 1621.5723,1128.6563 Q1621.2285,1128.6563 1621.0254,1128.4531 Q1620.8223,1128.2656 1620.7129,1127.75 Q1620.666,1127.3906 1620.4785,1127.2031 Q1620.1504,1126.8281 1619.541,1126.6094 Q1618.9316,1126.3906 1618.3066,1126.3906 Q1617.541,1126.3906 1616.9004,1126.7188 Q1616.2754,1127.0469 1615.7754,1127.7969 Q1615.291,1128.5469 1615.291,1129.5781 L1615.291,1130.6719 Q1615.291,1131.9063 1616.1816,1132.7344 Q1617.0723,1133.5469 1618.666,1133.5469 Q1619.6035,1133.5469 1620.2598,1133.2969 Q1620.6504,1133.1406 1621.0723,1132.7031 Q1621.3379,1132.4375 1621.4785,1132.3594 Q1621.6348,1132.2813 1621.8379,1132.2813 Q1622.166,1132.2813 1622.416,1132.5469 Q1622.6816,1132.7969 1622.6816,1133.1406 Q1622.6816,1133.4844 1622.3379,1133.8906 Q1621.8379,1134.4688 1621.041,1134.7969 Q1619.9629,1135.25 1618.666,1135.25 Q1617.1504,1135.25 1615.9473,1134.625 Q1614.9629,1134.125 1614.2754,1133.0625 Q1613.5879,1131.9844 1613.5879,1130.7031 L1613.5879,1129.5469 Q1613.5879,1128.2188 1614.1973,1127.0781 Q1614.8223,1125.9219 1615.916,1125.3125 Q1617.0098,1124.6875 1618.2441,1124.6875 Q1618.9785,1124.6875 1619.6191,1124.8594 Q1620.2754,1125.0156 1620.8223,1125.375 Z " fill="#000000"/><text fill="#000000" font-family="sans-serif" font-size="14" lengthAdjust="spacing" textLength="101.9307" x="1638.5566" y="1135.2969">ExpressElevator</text><line style="stroke:#181818;stroke-width:0.5;" x1="1560.5" x2="1786.0439" y1="1145.5" y2="1145.5"/><line style="stroke:#181818;stroke-width:0.5;" x1="1560.5" x2="1786.0439" y1="1153.5" y2="1153.5"/><g data-visibility-modifier="PUBLIC_METHOD"><ellipse cx="1570.5" cy="1168.3105" fill="#84BE84" rx="3" ry="3" style="stroke:#038048;stroke-width:1;"/></g><text fill="#000000" font-family="sans-serif" font-size="14" lengthAdjust="spacing" textLength="201.5439" x="1579.5" y="1172.6074">boolean canAcceptCall(Call call)</text><g data-visibility-modifier="PUBLIC_METHOD"><ellipse cx="1570.5" cy="1186.9316" fill="#84BE84" rx="3" ry="3" style="stroke:#038048;stroke-width:1;"/></g><text fill="#000000" font-family="sans-serif" font-size="14" lengthAdjust="spacing" textLength="192.9717" x="1579.5" y="1191.2285">boolean canVisitFloor(Call call)</text></g><!--reverse link Scheduler to SimpleScheduler--><g class="link" data-entity-1="ent0006" data-entity-2="ent0007" data-link-type="extension" data-source-line="77" id="lnk9"><path codeLine="77" d="M481.5647,500.0236 C517.0847,526.7936 541.61,546.76 575.5,577 C648.19,641.86 725.36,726.39 765.86,772.13" fill="none" id="Scheduler-backto-SimpleScheduler" style="stroke:#181818;stroke-width:1;"/><polygon fill="none" points="467.19,489.19,477.9535,504.8152,485.1759,495.2321,467.19,489.19" style="stroke:#181818;stroke-width:1;"/></g><!--reverse link Scheduler to ComplexScheduler--><g class="link" data-entity-1="ent0006" data-entity-2="ent0008" data-link-type="extension" data-source-line="78" id="lnk10"><path codeLine="78" d="M356.5,507.46 C356.5,594.19 356.5,710.91 356.5,772.4" fill="none" id="Scheduler-backto-ComplexScheduler" style="stroke:#181818;stroke-width:1;"/><polygon fill="none" points="356.5,489.46,350.5,507.46,362.5,507.46,356.5,489.46" style="stroke:#181818;stroke-width:1;"/></g><!--reverse link Elevator to StandardElevator--><g class="link" data-entity-1="ent0011" data-entity-2="ent0012" data-link-type="extension" data-source-line="129" id="lnk16"><path codeLine="129" d="M1020.7243,1026.191 C1014.8843,1034.211 1019.54,1027.48 1013.5,1035 C990.62,1063.5 960.99,1091.54 935.9,1113.34" fill="none" id="Elevator-backto-StandardElevator" style="stroke:#181818;stroke-width:1;"/><polygon fill="none" points="1031.32,1011.64,1015.874,1022.6591,1025.5746,1029.7229,1031.32,1011.64" style="stroke:#181818;stroke-width:1;"/></g><!--reverse link Elevator to FreightElevator--><g class="link" data-entity-1="ent0011" data-entity-2="ent0013" data-link-type="extension" data-source-line="130" id="lnk17"><path codeLine="130" d="M1147.5,1053.24 C1147.5,1082.96 1147.5,1092.34 1147.5,1113.39" fill="none" id="Elevator-backto-FreightElevator" style="stroke:#181818;stroke-width:1;"/><polygon fill="none" points="1147.5,1035.24,1141.5,1053.24,1153.5,1053.24,1147.5,1035.24" style="stroke:#181818;stroke-width:1;"/></g><!--reverse link Elevator to PentHouseElevator--><g class="link" data-entity-1="ent0011" data-entity-2="ent0014" data-link-type="extension" data-source-line="131" id="lnk18"><path codeLine="131" d="M1274.4734,975.0098 C1316.7234,1030.9098 1350.26,1075.29 1379.03,1113.36" fill="none" id="Elevator-backto-PentHouseElevator" style="stroke:#181818;stroke-width:1;"/><polygon fill="none" points="1263.62,960.65,1269.6867,978.6276,1279.26,971.392,1263.62,960.65" style="stroke:#181818;stroke-width:1;"/></g><!--reverse link Elevator to ExpressElevator--><g class="link" data-entity-1="ent0011" data-entity-2="ent0015" data-link-type="extension" data-source-line="132" id="lnk19"><path codeLine="132" d="M1278.5918,893.7321 C1385.5418,964.4921 1525.2,1056.89 1610.72,1113.46" fill="none" id="Elevator-backto-ExpressElevator" style="stroke:#181818;stroke-width:1;"/><polygon fill="none" points="1263.58,883.8,1275.2811,898.736,1281.9025,888.7281,1263.58,883.8" style="stroke:#181818;stroke-width:1;"/></g><!--reverse link Building to Elevator--><g class="link" data-entity-1="ent0005" data-entity-2="ent0011" data-link-type="composition" data-source-line="137" id="lnk20"><path codeLine="137" d="M1087.3804,528.8758 C1091.4804,547.7258 1093.34,556.25 1097.85,576.96" fill="none" id="Building-backto-Elevator" style="stroke:#181818;stroke-width:1;"/><polygon fill="#181818" points="1084.83,517.15,1082.1966,523.8631,1087.3804,528.8758,1090.0138,522.1628,1084.83,517.15" style="stroke:#181818;stroke-width:1;"/><text fill="#000000" font-family="sans-serif" font-size="13" lengthAdjust="spacing" textLength="7.23" x="1079.0959" y="538.6737">1</text><text fill="#000000" font-family="sans-serif" font-size="13" lengthAdjust="spacing" textLength="31.7891" x="1064.5189" y="565.463">many</text></g><!--reverse link Scheduler to Call--><g class="link" data-entity-1="ent0006" data-entity-2="ent0003" data-link-type="aggregation" data-source-line="138" id="lnk21"><path codeLine="138" d="M206.1103,496.4861 C175.2803,520.6161 155.87,542.63 137.5,577 C47,746.37 71.5,984.76 89.78,1094.89" fill="none" id="Scheduler-backto-Call" style="stroke:#181818;stroke-width:1;"/><polygon fill="none" points="215.56,489.09,208.3698,489.6381,206.1103,496.4861,213.3005,495.938,215.56,489.09" style="stroke:#181818;stroke-width:1;"/><text fill="#000000" font-family="sans-serif" font-size="13" lengthAdjust="spacing" textLength="7.23" x="196.1651" y="510.7558">1</text><text fill="#000000" font-family="sans-serif" font-size="13" lengthAdjust="spacing" textLength="31.7891" x="55.6552" y="1083.8585">many</text></g><!--link Simulator to Building--><g class="link" data-entity-1="ent0004" data-entity-2="ent0005" data-link-type="dependency" data-source-line="139" id="lnk22"><path codeLine="139" d="M482.54,175.59 C569.28,210.41 682.1719,255.7348 789.3419,298.7548" fill="none" id="Simulator-to-Building" style="stroke:#181818;stroke-width:1;"/><polygon fill="#181818" points="794.91,300.99,788.0479,293.9252,790.2699,299.1274,785.0677,301.3494,794.91,300.99" style="stroke:#181818;stroke-width:1;"/></g><!--link Simulator to Scheduler--><g class="link" data-entity-1="ent0004" data-entity-2="ent0006" data-link-type="dependency" data-source-line="140" id="lnk23"><path codeLine="140" d="M356.5,241.33 C356.5,270.76 356.5,295.68 356.5,322.79" fill="none" id="Simulator-to-Scheduler" style="stroke:#181818;stroke-width:1;"/><polygon fill="#181818" points="356.5,328.79,360.5,319.79,356.5,323.79,352.5,319.79,356.5,328.79" style="stroke:#181818;stroke-width:1;"/></g><!--link Simulator to Call--><g class="link" data-entity-1="ent0004" data-entity-2="ent0003" data-link-type="dependency" data-source-line="141" id="lnk24"><path codeLine="141" d="M230.45,219.3 C203.98,243.64 178.15,271.4 158.5,301 C86.81,408.95 85.67,449.16 64.5,577 C31.24,777.82 34.17,833.72 64.5,1035 C67.49,1054.83 71.2993,1070.1897 77.2693,1089.0497" fill="none" id="Simulator-to-Call" style="stroke:#181818;stroke-width:1;"/><polygon fill="#181818" points="79.08,1094.77,80.1774,1084.9825,77.5711,1090.0031,72.5504,1087.3968,79.08,1094.77" style="stroke:#181818;stroke-width:1;"/></g><!--link Elevator to Call--><g class="link" data-entity-1="ent0011" data-entity-2="ent0003" data-link-type="dependency" data-source-line="142" id="lnk25"><path codeLine="142" d="M1031.42,1021.52 C1025.69,1026.36 1019.72,1030.88 1013.5,1035 C979.61,1057.45 428.5946,1119.4595 202.1146,1144.1595" fill="none" id="Elevator-to-Call" style="stroke:#181818;stroke-width:1;"/><polygon fill="#181818" points="196.15,1144.81,205.5306,1147.8107,201.1205,1144.2679,204.6633,1139.8578,196.15,1144.81" style="stroke:#181818;stroke-width:1;"/></g><!--link Elevator to Direction--><g class="link" data-entity-1="ent0011" data-entity-2="ent0002" data-link-type="dependency" data-source-line="143" id="lnk26"><path codeLine="143" d="M1031.39,1020.28 C1025.66,1025.52 1019.7,1030.45 1013.5,1035 C917.89,1105.17 857.69,1038.36 753.5,1095 C747.18,1098.43 745.7381,1098.933 739.9481,1103.583" fill="none" id="Elevator-to-Direction" style="stroke:#181818;stroke-width:1;"/><polygon fill="#181818" points="735.27,1107.34,744.7919,1104.8232,739.1684,1104.2091,739.7825,1098.5857,735.27,1107.34" style="stroke:#181818;stroke-width:1;"/></g><?plantuml-src jLPRRzem57xdLrZTGs4hg_OwTPK2f2jI2eX0zp3jmNLSy9ROaUsWJjt--qwSn4aS66ngUO1mlfDp-NmkFaT-J7TO2ub2bcInULf8yPqIZTPtGUySRRLErSVBopJ6N6T9_9w8v9B4MAbXnF16ugG7Mf_-yW7OdwtlmcDgb6S9cZ09lfdWwBc7q7e1NvFvbndyJ2U1t_jzWhEn5mHe77ZXKOyc3JJ6SMoy3H7Z6YcDfRw9XP1MH7bK2TuPzRvLlAWK1XP4ak9eoerUg2NZ6nGpJWSd1HzExzQ1jvelJukzFhKYWL76uYZt-50-66b8jZJAOYgHgfviRb9aF9fbS8fv_3l18hJ5F8hfCWVwWreiCrwwW-Df0Ydag9lg3qB457F4LFt2H71QmYKf10Yw4JB1MbFP3vZILpbdrmPGJSUMJrLQ0Eer8mMQOCPBdhz-GrXkr6bCZzRJO3ATVJwDQ4jiNIXGhgOgb96O-AjkkaQqVCh51RMLXNxhtOlALAY1TIoZoeG5RYHbcwtko1UKwrkHATf1_ATKKgKgUOD974Mk7sNY8N1wkgte-3serudZeAOJLqVFeN136yuB3Jkj6fYnmdX4dquxTsyKhfRUU8N2yQq_MGV-qLR33qfB31Enx3dRJS_roHULct5GO1jE8rEjnS5R_NwR3ZCWpC0WhM9Fn8vsi8OJo7tTzkEoymXqL7-Wmuon0_LPD8iT9cbCs-dzfzKBL0LlhOz5RltfvStN5gz-3OTk5YxiXl4l5UC7_lqfizaf69jYFJj89YNqJNlDbC855H2XaLQ3D6NaHvRc8zI8woKPLKzk9PeP6bAvOyHkWMBiccbDenbEQAyrhGdc7Y4qrOtYWw-1gtJF52iYTvMAoZQLkSz6kuQzFHMSim3GkC5EYTGf0sx_x7rjJaYMmcL5DVkDmKORqKSXgNrv37jkGvjAn4YQRglzarVBX2hDUBtzXkN-WNPTYS_Ixh-M_C1B4OMTby2jmCNVc4I0aZh75ejTtDDJo6sFrZg5gngS-5vBTTCx-w1iovSf2kl5MIQluwIpYLx7ZRF6Njg9jLjCC-Tu7DZXrK4xX3Yuaya9et3fm-LqEf-5jzF5qUkrlJETVJX3Ry7VMOBvppCx3nkZETSGjKREIA--smw7r_Rwv8WRSxubDnPijlibjZ5wVm00?></g></svg>